<svg xmlns="http://www.w3.org/2000/svg" class="MuiSvgIcon-root MuiSvgIcon-fontSizeMedium css-10dohqv" height='1.3em' width='1.3em' focusable="false" aria-hidden="true" viewBox="0 0 24 24"><path fill-rule="evenodd" d="M13.329 3.516c.058.052.114.107.166.166l6 6.75A2 2 0 0120 11.76V19a2 2 0 01-2 2h-3.998H10 6a2 2 0 01-2-2v-7.24a2 2 0 01.505-1.328l6-6.75a2 2 0 012.824-.166zM11 19h2v-4h-2v4zm4 0v-5a1 1 0 00-1-1h-4a1 1 0 00-1 1v5H6v-7.24l6-6.75 6 6.75V19h-3z" clip-rule="evenodd" fill="#fff"></path></svg> 